<svg width="248" height="116" viewBox="0 0 248 116" fill="none" xmlns="http://www.w3.org/2000/svg">
<mask id="path-1-inside-1_26_1299" fill="white">
<path d="M0 0H248V116H0V0Z"/>
</mask>
<path d="M0 0H248V116H0V0Z" fill="#242D44"/>
<path d="M248 115H0V117H248V115Z" fill="#303030" mask="url(#path-1-inside-1_26_1299)"/>
<path d="M71.4384 46.4133L59.9434 40.2167C58.7334 39.5567 57.2667 39.5567 56.0567 40.2167L44.5617 46.4133C43.7184 46.8717 43.2051 47.7517 43.2051 48.76C43.2051 49.75 43.7184 50.6483 44.5617 51.1067L56.0567 57.3033C56.6617 57.6333 57.3401 57.7983 58.0001 57.7983C58.6601 57.7983 59.3384 57.6333 59.9434 57.3033L71.4384 51.1067C72.2817 50.6483 72.7951 49.7683 72.7951 48.76C72.7951 47.7517 72.2817 46.8717 71.4384 46.4133Z" fill="url(#paint0_linear_26_1299)"/>
<path d="M54.1682 59.4484L43.4615 54.095C42.6365 53.6917 41.6832 53.7284 40.9132 54.205C40.1248 54.7 39.6665 55.525 39.6665 56.4417V66.5434C39.6665 68.285 40.6382 69.8617 42.1965 70.65L52.8848 76.0034C53.2515 76.1867 53.6548 76.2784 54.0582 76.2784C54.5348 76.2784 55.0115 76.15 55.4332 75.8934C56.2215 75.4167 56.6798 74.5734 56.6798 73.6567V63.555C56.6982 61.795 55.7265 60.2184 54.1682 59.4484Z" fill="url(#paint1_linear_26_1299)"/>
<path d="M75.0865 54.205C74.2982 53.7283 73.3448 53.6733 72.5382 54.095L61.8498 59.4483C60.2915 60.2367 59.3198 61.795 59.3198 63.555V73.6567C59.3198 74.5733 59.7782 75.4167 60.5665 75.8933C60.9882 76.15 61.4648 76.2783 61.9415 76.2783C62.3448 76.2783 62.7482 76.1867 63.1148 76.0033L73.8032 70.65C75.3615 69.8617 76.3332 68.3033 76.3332 66.5433V56.4417C76.3332 55.525 75.8748 54.7 75.0865 54.205Z" fill="url(#paint2_linear_26_1299)"/>
<path d="M100.608 54.912C101.269 54.7627 101.909 54.272 102.528 53.44C103.147 52.608 103.456 51.5733 103.456 50.336C103.456 49.0773 103.008 48.16 102.112 47.584C101.237 47.008 99.8827 46.72 98.048 46.72C95.3173 46.72 93.0773 47.2427 91.328 48.288C89.6 49.3333 88.736 50.4533 88.736 51.648C88.736 52.2667 88.9707 52.768 89.44 53.152C89.9093 53.5147 90.3787 53.76 90.848 53.888C90.784 54.72 90.496 55.5093 89.984 56.256C89.152 56.1067 88.384 55.6693 87.68 54.944C86.976 54.1973 86.624 53.2373 86.624 52.064C86.624 49.9733 87.7867 48.2453 90.112 46.88C92.4373 45.4933 95.4453 44.8 99.136 44.8C101.973 44.8 104.224 45.248 105.888 46.144C107.552 47.04 108.384 48.416 108.384 50.272C108.384 51.7227 107.883 52.928 106.88 53.888C105.877 54.848 104.597 55.5733 103.04 56.064C104.597 56.2987 105.835 56.8853 106.752 57.824C108.459 57.376 110.037 57.152 111.488 57.152L113.056 57.248C113.099 57.3973 113.12 57.5467 113.12 57.696C113.12 58.4427 113.013 59.0293 112.8 59.456C112.224 59.328 111.445 59.264 110.464 59.264C109.504 59.264 108.64 59.3813 107.872 59.616C108.149 60.4053 108.288 61.248 108.288 62.144C108.288 64.32 107.637 66.112 106.336 67.52C105.035 68.928 103.541 69.632 101.856 69.632C100.704 69.632 99.744 69.28 98.976 68.576C98.208 67.8933 97.824 66.9013 97.824 65.6C97.824 64.2773 98.304 63.0293 99.264 61.856C100.245 60.6613 101.44 59.7227 102.848 59.04C102.293 57.6107 101.301 56.896 99.872 56.896H99.648C99.52 56.3413 99.552 55.712 99.744 55.008C100.064 55.008 100.352 54.976 100.608 54.912ZM94.4 51.424C94.4 51.0187 94.3467 50.72 94.24 50.528C94.1547 50.336 93.952 50.0587 93.632 49.696L93.664 49.472C94.7947 48.8107 96.2027 48.48 97.888 48.48C98.5493 48.48 99.04 48.5333 99.36 48.64C99.4667 48.8533 99.52 49.312 99.52 50.016C99.52 50.6987 98.9653 53.2693 97.856 57.728C96.768 62.1653 96.128 65.472 95.936 67.648C94.6773 68.0107 93.28 68.192 91.744 68.192C91.3813 68.192 91.1147 68.16 90.944 68.096C91.0507 66.752 91.648 63.9573 92.736 59.712C93.8453 55.4667 94.4 52.704 94.4 51.424ZM101.088 66.912C101.664 66.912 102.176 66.3893 102.624 65.344C103.072 64.2773 103.296 63.0827 103.296 61.76L103.264 61.216C102.475 61.5147 101.717 62.0587 100.992 62.848C100.288 63.6373 99.936 64.48 99.936 65.376C99.936 65.9093 100.053 66.304 100.288 66.56C100.544 66.7947 100.811 66.912 101.088 66.912ZM113.455 68.384C112.73 68.384 112.122 68.1387 111.631 67.648C111.162 67.1573 110.927 66.4747 110.927 65.6C110.927 64.704 111.45 61.8773 112.495 57.12C113.562 52.3413 114.095 48.896 114.095 46.784L113.903 45.376C115.567 44.8 117.125 44.512 118.575 44.512C118.789 44.8107 118.895 45.3333 118.895 46.08C118.895 47.7867 118.351 51.0933 117.263 56C116.197 60.8853 115.663 63.7333 115.663 64.544C115.663 65.3333 115.759 65.728 115.951 65.728L118.191 64.928L118.767 66.048C118.042 66.624 117.157 67.1573 116.111 67.648C115.087 68.1387 114.202 68.384 113.455 68.384ZM123.971 68.384C122.499 68.384 121.347 67.872 120.515 66.848C119.683 65.8027 119.267 64.352 119.267 62.496C119.267 60.128 119.897 58.0907 121.155 56.384C122.435 54.6773 124.195 53.824 126.435 53.824L127.587 53.888C127.95 53.696 128.355 53.6 128.803 53.6C130.489 53.6 131.331 55.1893 131.331 58.368C132.206 58.3253 133.091 58.208 133.987 58.016L134.499 57.888L134.691 59.136C133.987 59.4347 133.038 59.7013 131.843 59.936L131.203 60.064C130.798 62.304 129.977 64.256 128.739 65.92C127.502 67.5627 125.913 68.384 123.971 68.384ZM125.699 65.632C126.595 65.632 127.395 65.056 128.099 63.904C128.825 62.752 129.326 61.536 129.603 60.256C127.321 60.256 126.179 59.4027 126.179 57.696C126.179 57.0133 126.318 56.3733 126.595 55.776L126.755 55.456C126.67 55.4133 126.563 55.392 126.435 55.392C126.307 55.392 126.211 55.4133 126.147 55.456C125.614 55.7973 125.113 56.5973 124.643 57.856C124.174 59.1147 123.939 60.5547 123.939 62.176C123.939 64.48 124.526 65.632 125.699 65.632ZM140.258 55.424C139.404 55.424 138.722 56.1387 138.21 57.568C137.698 58.976 137.442 60.4907 137.442 62.112C137.442 64.672 138.231 65.952 139.81 65.952C140.322 65.952 140.866 65.8347 141.442 65.6C142.018 65.344 142.476 65.0987 142.818 64.864L143.298 64.48L144.034 65.472C143.863 65.7067 143.522 66.016 143.01 66.4C142.498 66.784 142.018 67.104 141.57 67.36C141.122 67.616 140.546 67.8507 139.842 68.064C139.138 68.2773 138.444 68.384 137.762 68.384C136.098 68.384 134.85 67.84 134.018 66.752C133.186 65.664 132.77 64.2027 132.77 62.368C132.77 59.8293 133.463 57.7707 134.85 56.192C136.258 54.6133 138.06 53.824 140.258 53.824C141.687 53.824 142.818 54.1547 143.65 54.816C144.503 55.456 144.93 56.256 144.93 57.216C144.93 58.1547 144.631 58.9653 144.034 59.648C143.5 59.648 142.882 59.5307 142.178 59.296C141.474 59.0613 140.94 58.7733 140.578 58.432L141.058 55.616C140.866 55.488 140.599 55.424 140.258 55.424ZM149.232 46.88C149.232 46.176 149.168 45.6747 149.04 45.376C150.704 44.8 152.272 44.512 153.744 44.512C153.936 44.704 154.032 45.1947 154.032 45.984C154.032 47.7547 153.446 51.1467 152.272 56.16C154.171 54.6027 156.048 53.824 157.904 53.824C158.736 53.824 159.44 54.08 160.016 54.592C160.592 55.104 160.88 55.8507 160.88 56.832C160.88 58.6667 159.376 60 156.368 60.832C157.072 63.0507 157.691 64.5547 158.224 65.344C158.459 65.6853 158.63 65.856 158.736 65.856C158.971 65.856 159.462 65.6747 160.208 65.312L160.56 65.152L161.072 66.24C160.56 66.7093 159.846 67.1893 158.928 67.68C158.032 68.1493 157.211 68.384 156.464 68.384C154.8 68.384 153.638 66.8693 152.976 63.84C152.678 62.5387 152.496 61.3227 152.432 60.192C153.798 59.872 154.811 59.488 155.472 59.04C156.155 58.5707 156.496 57.984 156.496 57.28C156.496 56.5547 156.134 56.192 155.408 56.192C154.683 56.192 153.467 56.9173 151.76 58.368C150.694 62.8693 150.16 65.952 150.16 67.616C148.987 67.9573 147.462 68.128 145.584 68.128C145.563 67.7653 145.552 67.4453 145.552 67.168C145.552 66.2507 146.16 63.1147 147.376 57.76C148.614 52.4053 149.232 48.7787 149.232 46.88ZM170.09 73.632C169.301 74.1653 168.544 74.5493 167.818 74.784C167.093 75.04 166.389 75.168 165.706 75.168C165.024 75.168 164.469 74.976 164.042 74.592C163.616 74.208 163.402 73.6533 163.402 72.928C163.402 72.224 163.861 71.552 164.778 70.912C165.696 70.272 166.602 69.8347 167.498 69.6L168.874 69.28L169.354 66.72C168.117 67.6587 166.922 68.128 165.77 68.128C164.64 68.128 163.712 67.6907 162.986 66.816C162.282 65.9413 161.93 64.544 161.93 62.624C161.93 60.1067 162.496 58.016 163.626 56.352C164.757 54.6667 166.25 53.824 168.106 53.824C169.152 53.824 170.186 54.08 171.21 54.592C172.298 54.208 173.472 54.016 174.73 54.016L175.402 54.048C175.466 54.304 175.498 54.6667 175.498 55.136C175.498 57.0133 174.826 61.2267 173.482 67.776C173.248 69.12 172.821 70.2933 172.202 71.296C171.584 72.32 170.88 73.0987 170.09 73.632ZM169.546 55.712C168.629 55.712 167.904 56.4587 167.37 57.952C166.837 59.424 166.57 61.0667 166.57 62.88C166.57 64.672 166.976 65.568 167.786 65.568C168.32 65.568 168.949 65.3653 169.674 64.96C170.272 61.376 170.698 58.4213 170.954 56.096C170.357 55.84 169.888 55.712 169.546 55.712ZM164.842 72.864C164.842 73.2693 165.077 73.472 165.546 73.472C166.037 73.472 166.57 73.1947 167.146 72.64C167.722 72.1067 168.181 71.4453 168.522 70.656C167.818 70.7413 167.029 70.9973 166.154 71.424C165.28 71.872 164.842 72.352 164.842 72.864ZM183.24 55.808C183.24 56.704 182.952 58.2507 182.376 60.448C181.8 62.624 181.512 64.0533 181.512 64.736C181.512 65.3973 181.608 65.728 181.8 65.728C181.928 65.728 182.419 65.5253 183.272 65.12L183.656 64.928L184.2 66.048C184.008 66.2187 183.752 66.432 183.432 66.688C183.112 66.944 182.515 67.296 181.64 67.744C180.766 68.1707 179.955 68.384 179.208 68.384C178.462 68.384 177.875 68.16 177.448 67.712C177.022 67.2427 176.808 66.624 176.808 65.856C176.808 65.0667 177.075 63.68 177.608 61.696C178.142 59.6907 178.408 58.3893 178.408 57.792C178.408 56.896 178.131 56.0533 177.576 55.264L177.288 54.88L177.32 54.464C178.451 54.144 180.286 53.984 182.824 53.984C183.102 54.304 183.24 54.912 183.24 55.808ZM179.592 50.496C179.166 50.0693 178.952 49.504 178.952 48.8C178.952 48.096 179.24 47.4773 179.816 46.944C180.414 46.4107 181.096 46.144 181.864 46.144C182.632 46.144 183.23 46.3573 183.656 46.784C184.083 47.2107 184.296 47.776 184.296 48.48C184.296 49.1627 183.987 49.7707 183.368 50.304C182.771 50.8373 182.099 51.104 181.352 51.104C180.606 51.104 180.019 50.9013 179.592 50.496ZM193.559 73.632C192.77 74.1653 192.012 74.5493 191.287 74.784C190.562 75.04 189.858 75.168 189.175 75.168C188.492 75.168 187.938 74.976 187.511 74.592C187.084 74.208 186.871 73.6533 186.871 72.928C186.871 72.224 187.33 71.552 188.247 70.912C189.164 70.272 190.071 69.8347 190.967 69.6L192.343 69.28L192.823 66.72C191.586 67.6587 190.391 68.128 189.239 68.128C188.108 68.128 187.18 67.6907 186.455 66.816C185.751 65.9413 185.399 64.544 185.399 62.624C185.399 60.1067 185.964 58.016 187.095 56.352C188.226 54.6667 189.719 53.824 191.575 53.824C192.62 53.824 193.655 54.08 194.679 54.592C195.767 54.208 196.94 54.016 198.199 54.016L198.871 54.048C198.935 54.304 198.967 54.6667 198.967 55.136C198.967 57.0133 198.295 61.2267 196.951 67.776C196.716 69.12 196.29 70.2933 195.671 71.296C195.052 72.32 194.348 73.0987 193.559 73.632ZM193.015 55.712C192.098 55.712 191.372 56.4587 190.839 57.952C190.306 59.424 190.039 61.0667 190.039 62.88C190.039 64.672 190.444 65.568 191.255 65.568C191.788 65.568 192.418 65.3653 193.143 64.96C193.74 61.376 194.167 58.4213 194.423 56.096C193.826 55.84 193.356 55.712 193.015 55.712ZM188.311 72.864C188.311 73.2693 188.546 73.472 189.015 73.472C189.506 73.472 190.039 73.1947 190.615 72.64C191.191 72.1067 191.65 71.4453 191.991 70.656C191.287 70.7413 190.498 70.9973 189.623 71.424C188.748 71.872 188.311 72.352 188.311 72.864ZM209.973 63.808C209.973 65.152 209.376 66.2507 208.181 67.104C207.008 67.9573 205.664 68.384 204.149 68.384C202.634 68.384 201.429 68.064 200.533 67.424C199.658 66.784 199.221 66.2187 199.221 65.728C199.221 65.4293 199.594 64.9493 200.341 64.288C201.088 63.6053 201.717 63.1893 202.229 63.04C203.296 63.8293 204.17 65.0773 204.853 66.784C205.642 66.72 206.037 66.3467 206.037 65.664C206.037 64.6827 205.173 63.296 203.445 61.504C201.717 59.6907 200.853 58.2507 200.853 57.184C200.853 56.1173 201.333 55.296 202.293 54.72C203.253 54.1227 204.405 53.824 205.749 53.824C207.114 53.824 208.138 54.0693 208.821 54.56C209.504 55.0293 209.845 55.68 209.845 56.512C209.845 57.3227 209.194 58.4533 207.893 59.904C208.042 60.0533 208.234 60.256 208.469 60.512C208.704 60.7467 209.013 61.2053 209.397 61.888C209.781 62.5707 209.973 63.2107 209.973 63.808ZM206.901 58.784C207.797 58.016 208.245 57.2587 208.245 56.512C208.245 55.7653 207.733 55.392 206.709 55.392C206.218 55.392 205.813 55.4987 205.493 55.712C205.173 55.904 205.013 56.128 205.013 56.384C205.013 56.8533 205.482 57.5147 206.421 58.368L206.901 58.784Z" fill="#F3F3F3"/>
<defs>
<linearGradient id="paint0_linear_26_1299" x1="58.0001" y1="39.7217" x2="58.0001" y2="57.7983" gradientUnits="userSpaceOnUse">
<stop stop-color="#3C7996"/>
<stop offset="1" stop-color="#5AE1FF"/>
</linearGradient>
<linearGradient id="paint1_linear_26_1299" x1="48.1733" y1="53.8177" x2="48.1733" y2="76.2784" gradientUnits="userSpaceOnUse">
<stop stop-color="#3C7996"/>
<stop offset="1" stop-color="#5AE1FF"/>
</linearGradient>
<linearGradient id="paint2_linear_26_1299" x1="67.8265" y1="53.8103" x2="67.8265" y2="76.2783" gradientUnits="userSpaceOnUse">
<stop stop-color="#3C7996"/>
<stop offset="1" stop-color="#5AE1FF"/>
</linearGradient>
</defs>
</svg>
